# xmcd
#
# Track frame offsets: 
#        150
#        17182
#        31127
#        48807
#        60187
#        70530
#        84997
#        98882
#        112602
#        121145
#        141687
#        153585
#        166842
#        180335
#        191477
#
# Disc length: 2744 seconds
#
# Revision: 0
# Processed by: cddbd v1.4PL0 Copyright (c) Steve Scherf et al.
# Submitted via: ExactAudioCopy v0.90a11
#
DISCID=ae0ab60f
DTITLE=20 Miles - Keep It Coming...
DYEAR=1900
DGENRE=
TTITLE0=Well, Well, Well
TTITLE1=Mend Your Heart
TTITLE2=Only One
TTITLE3=All My Brothers, Sisters Too
TTITLE4=Silver String
TTITLE5=Rhythm Bound
TTITLE6=Fix Fences
TTITLE7=Beautiful Dream
TTITLE8=Late At Night
TTITLE9=Feel Right
TTITLE10=Streets and Lights
TTITLE11=My Baby Fell Down The Well
TTITLE12=Like A Rock
TTITLE13=Phaedo
TTITLE14=I Believe
EXTD=
EXTT0=
EXTT1=
EXTT2=
EXTT3=
EXTT4=
EXTT5=
EXTT6=
EXTT7=
EXTT8=
EXTT9=
EXTT10=
EXTT11=
EXTT12=
EXTT13=
EXTT14=
PLAYORDER=
